<svg width="120" height="28" viewBox="0 0 320 65" fill="none" xmlns="http://www.w3.org/2000/svg">
<path d="M130.7 0V64.8412H117.032V0H130.7Z" fill="white"/>
<path d="M153.095 0V64.8412H139.427V0H153.095Z" fill="white"/>
<path d="M175.544 0V19.2902C176.456 17.723 178.015 16.3806 180.208 15.3245C182.449 14.2615 184.778 13.7573 187.343 13.7573C198.635 13.7573 204.257 22.2951 204.257 39.3231C204.257 56.3511 198.588 64.8889 187.248 64.8889C184.69 64.8889 182.267 64.337 179.979 63.1786C177.691 62.027 176.55 60.5961 175.544 58.7972V64.8889H161.829V0H175.544ZM177.279 28.3799C175.997 30.5945 175.362 34.1922 175.362 39.2277C175.362 44.2632 176.003 47.8609 177.279 50.0754C178.561 52.29 180.526 53.4006 183.084 53.4006C185.642 53.4006 187.471 52.3377 188.618 50.1708C189.806 48.004 190.353 44.3586 190.353 39.2345C190.353 34.1104 189.759 30.4173 188.618 28.2982C187.43 26.1313 185.601 25.0684 183.084 25.0684C180.566 25.0684 178.555 26.179 177.279 28.3936V28.3799Z" fill="white"/>
<path d="M211.844 28.1074L210.15 17.723C214.537 15.9718 221.577 14.0775 227.382 14.0775C233.827 14.0775 238.491 15.3722 241.414 17.9547C244.337 20.5371 245.849 24.5573 245.849 30.0017V64.8003H232.775V58.988C230.216 62.8652 226.558 64.8003 220.612 64.8003C216.542 64.8003 213.255 63.5534 210.831 61.0595C208.408 58.5656 207.173 54.9201 207.173 50.1708C207.173 47.493 207.585 45.1899 208.408 43.2479C209.232 41.3127 210.325 39.7387 211.702 38.5872C213.072 37.3879 214.901 36.4612 217.142 35.773C219.383 35.078 221.712 34.5738 224.135 34.2944C226.558 34.015 229.44 33.8311 232.775 33.7834V31.1532C232.775 29.075 232.181 27.5963 231.04 26.6288C229.852 25.7089 227.976 25.1978 225.417 25.1978C221.118 25.2455 216.548 26.3085 211.837 28.1074H211.844ZM232.781 41.7216C228.3 41.8579 225.053 42.4166 223.136 43.3842C221.219 44.3994 220.254 46.3346 220.254 49.2441C220.254 53.169 221.948 55.1518 225.377 55.1518C227.895 55.1518 229.764 54.3682 230.952 52.801C232.187 51.2338 232.781 49.1556 232.781 46.5254V41.7216Z" fill="white"/>
<path d="M267.569 22.8879C270.491 17.2119 275.432 15.1337 281.419 15.086V30.1311C281.419 30.1311 274.332 27.6849 270.404 32.441C268.939 34.3762 268.21 36.9655 268.21 40.1476V64.7935H254.63V15.5493H267.616V22.8879H267.569Z" fill="white"/>
<path d="M94.8998 64.7935V58.6065C92.3417 62.7152 88.4067 64.7935 83.196 64.7935C73.8275 64.7935 69.1635 59.4378 69.1635 48.7808V16.6123H82.7437V45.2239C82.7437 47.7178 83.1554 49.5644 83.9317 50.8113C84.7079 52.0583 86.078 52.6579 88.0017 52.6579C90.1481 52.6579 91.795 51.8743 92.9357 50.3071C94.0764 48.7399 94.6298 46.5663 94.6298 43.7521V16.6123H108.21V64.7935H108.257H94.8998Z" fill="white"/>
<path d="M53.3491 0C38.6281 0 39.6811 13.9821 39.6811 13.9821V64.7935H53.0318V28.891H61.8064V17.4436H52.9846V14.3501C52.9846 14.3501 52.6674 10.7932 57.0546 10.7932L67.0643 10.8409V0H53.3491Z" fill="white"/>
<path d="M0 35.0303L0.958448 35.8616L20.2961 52.9782L22.402 54.8247L24.1839 52.7465L29.0774 47.0705L30.8998 44.9514L28.8007 43.1525L16.7796 32.4887L28.8884 21.8318L30.8998 19.9852L29.1652 17.907L24.2717 12.0947L22.4425 9.96875L20.3434 11.8153L0.958448 29.1227L0 29.954V35.0303Z" fill="#8C43FF"/>
<path d="M320 29.77L319.042 28.9387L299.704 11.8153L297.605 9.96875L290.929 17.723L289.1 19.8421L291.199 21.641L303.227 32.3048L291.112 42.9685L289.1 44.8083L290.835 46.8865L295.728 52.7056L297.557 54.8247L299.657 52.9782L319.042 35.6708L320 34.8463V29.77Z" fill="#8C43FF"/>
</svg>
